<svg width="37" height="37" viewBox="0 0 37 37" fill="none" xmlns="http://www.w3.org/2000/svg">
<g id="eva:close-fill">
<path id="Vector" d="M21.3477 10.9986L28.5075 3.85447C28.821 3.54089 28.9972 3.11558 28.9972 2.67211C28.9972 2.22864 28.821 1.80333 28.5075 1.48975C28.1939 1.17617 27.7687 1 27.3253 1C26.8819 1 26.4566 1.17617 26.1431 1.48975L19 8.65052L11.8569 1.48975C11.5434 1.17617 11.1181 1 10.6747 1C10.2313 1 9.80606 1.17617 9.49252 1.48975C9.17898 1.80333 9.00284 2.22864 9.00284 2.67211C9.00284 3.11558 9.17898 3.54089 9.49252 3.85447L16.6523 10.9986L9.49252 18.1427C9.33646 18.2975 9.21259 18.4817 9.12805 18.6846C9.04352 18.8875 9 19.1052 9 19.3251C9 19.5449 9.04352 19.7626 9.12805 19.9655C9.21259 20.1684 9.33646 20.3526 9.49252 20.5074C9.64731 20.6635 9.83147 20.7874 10.0344 20.8719C10.2373 20.9565 10.4549 21 10.6747 21C10.8945 21 11.1122 20.9565 11.3151 20.8719C11.518 20.7874 11.7021 20.6635 11.8569 20.5074L19 13.3466L26.1431 20.5074C26.2979 20.6635 26.482 20.7874 26.6849 20.8719C26.8878 20.9565 27.1055 21 27.3253 21C27.5451 21 27.7627 20.9565 27.9656 20.8719C28.1685 20.7874 28.3527 20.6635 28.5075 20.5074C28.6635 20.3526 28.7874 20.1684 28.8719 19.9655C28.9565 19.7626 29 19.5449 29 19.3251C29 19.1052 28.9565 18.8875 28.8719 18.6846C28.7874 18.4817 28.6635 18.2975 28.5075 18.1427L21.3477 10.9986Z" fill="#12484A"/>
</g>
</svg>
