<svg width="24" height="25" viewBox="0 0 24 25" fill="none" xmlns="http://www.w3.org/2000/svg">
<g id="twitter 1">
<path id="Vector" d="M22 3.2111C21.2483 3.53719 20.4534 3.75276 19.64 3.8511C20.4982 3.33842 21.1413 2.53188 21.45 1.5811C20.6436 2.06116 19.7608 2.3994 18.84 2.5811C18.2245 1.91367 17.405 1.46939 16.5098 1.31795C15.6147 1.1665 14.6945 1.31646 13.8938 1.74429C13.093 2.17212 12.4569 2.85363 12.0852 3.68193C11.7135 4.51024 11.6273 5.43849 11.84 6.3211C10.2094 6.23862 8.61444 5.81405 7.15865 5.07496C5.70287 4.33587 4.41885 3.29879 3.39 2.0311C3.02914 2.66127 2.83952 3.37492 2.84 4.1011C2.83872 4.77548 3.00422 5.43971 3.32176 6.03466C3.63929 6.62961 4.09902 7.13681 4.66 7.5111C4.00798 7.49336 3.36989 7.3184 2.8 7.0011V7.0511C2.80489 7.99599 3.13599 8.91019 3.73731 9.63906C4.33864 10.3679 5.17326 10.8667 6.1 11.0511C5.74326 11.1597 5.37287 11.2169 5 11.2211C4.74189 11.2181 4.48442 11.1947 4.23 11.1511C4.49391 11.9639 5.00462 12.6742 5.69107 13.1833C6.37753 13.6923 7.20558 13.9746 8.06 13.9911C6.6172 15.1264 4.83588 15.746 3 15.7511C2.66574 15.7522 2.33174 15.7322 2 15.6911C3.87443 16.9014 6.05881 17.5438 8.29 17.5411C9.82969 17.5571 11.3571 17.2661 12.7831 16.6852C14.2091 16.1042 15.505 15.245 16.5952 14.1576C17.6854 13.0702 18.548 11.7765 19.1326 10.352C19.7172 8.92752 20.012 7.40083 20 5.8611C20 5.6911 20 5.5111 20 5.3311C20.7847 4.74591 21.4615 4.02852 22 3.2111Z" fill="#12484A"/>
</g>
</svg>
