<svg width="49" height="49" viewBox="0 0 49 49" fill="none" xmlns="http://www.w3.org/2000/svg">
<path d="M49 24.4755C49 10.9637 38.024 0 24.5 0C10.976 0 0 10.9637 0 24.4755C0 31.9174 3.381 38.6242 8.673 43.1261C8.722 43.1751 8.771 43.1751 8.771 43.2241C9.212 43.5671 9.653 43.9101 10.143 44.2531C10.388 44.4001 10.584 44.5931 10.829 44.7891C14.8778 47.5342 19.6573 49.0011 24.549 49C29.4407 49.0011 34.2202 47.5342 38.269 44.7891C38.514 44.6421 38.71 44.4491 38.955 44.2991C39.396 43.9591 39.886 43.6161 40.327 43.2731C40.376 43.2241 40.425 43.2241 40.425 43.1751C45.619 38.6212 49 31.9174 49 24.4755ZM24.5 45.9161C19.894 45.9161 15.68 44.4461 12.201 41.9991C12.25 41.6071 12.348 41.2182 12.446 40.8262C12.738 39.7638 13.1662 38.7437 13.72 37.7913C14.259 36.8603 14.896 36.0273 15.68 35.2923C16.415 34.5573 17.297 33.8743 18.179 33.3353C19.11 32.7963 20.09 32.4043 21.168 32.1103C22.2544 31.8175 23.3748 31.6702 24.5 31.6724C27.8401 31.6487 31.0575 32.93 33.467 35.2433C34.594 36.3703 35.476 37.6933 36.113 39.2092C36.456 40.0912 36.701 41.0222 36.848 41.9991C33.2317 44.5415 28.9205 45.9091 24.5 45.9161ZM17.003 23.2536C16.5713 22.265 16.3541 21.1962 16.366 20.1176C16.366 19.0426 16.562 17.9646 17.003 16.9846C17.444 16.0046 18.032 15.1257 18.767 14.3907C19.502 13.6557 20.384 13.0708 21.364 12.6298C22.344 12.1888 23.422 11.9927 24.5 11.9927C25.627 11.9927 26.656 12.1888 27.636 12.6298C28.616 13.0708 29.498 13.6587 30.233 14.3907C30.968 15.1257 31.556 16.0077 31.997 16.9846C32.438 17.9646 32.634 19.0426 32.634 20.1176C32.634 21.2446 32.438 22.2736 31.997 23.2505C31.5714 24.216 30.9737 25.096 30.233 25.8475C29.4812 26.5871 28.6013 27.1838 27.636 27.6084C25.6112 28.4406 23.3398 28.4406 21.315 27.6084C20.3497 27.1838 19.4698 26.5871 18.718 25.8475C17.9763 25.107 17.3928 24.2265 17.003 23.2536ZM39.739 39.5032C39.739 39.4052 39.69 39.3562 39.69 39.2582C39.2081 37.7252 38.4978 36.2735 37.583 34.9523C36.6674 33.6213 35.5421 32.4474 34.251 31.4764C33.2649 30.7346 32.1961 30.1097 31.066 29.6144C31.5801 29.2752 32.0565 28.882 32.487 28.4414C33.2175 27.7202 33.8591 26.9142 34.398 26.0404C35.4832 24.2575 36.0437 22.2046 36.015 20.1176C36.0302 18.5726 35.73 17.0407 35.133 15.6157C34.5435 14.2426 33.6951 12.9959 32.634 11.9438C31.5745 10.9026 30.3276 10.0713 28.959 9.49375C27.5316 8.89777 25.9978 8.59871 24.451 8.61481C22.904 8.59968 21.3702 8.89978 19.943 9.49681C18.5626 10.0731 17.3126 10.9221 16.268 11.9927C15.2269 13.0511 14.3956 14.297 13.818 15.6647C13.221 17.0897 12.9208 18.6216 12.936 20.1666C12.936 21.2446 13.083 22.2736 13.377 23.2505C13.671 24.2795 14.063 25.2105 14.602 26.0894C15.092 26.9714 15.778 27.7554 16.513 28.4904C16.954 28.9314 17.444 29.3204 17.983 29.6634C16.8494 30.1719 15.7802 30.8134 14.798 31.5744C13.524 32.5544 12.397 33.7273 11.466 35.0013C10.5419 36.3171 9.83087 37.7702 9.359 39.3072C9.31 39.4052 9.31 39.5032 9.31 39.5522C5.439 35.6353 3.038 30.3494 3.038 24.4755C3.038 12.6788 12.691 3.03494 24.5 3.03494C36.309 3.03494 45.962 12.6788 45.962 24.4755C45.9556 30.1104 43.7182 35.5134 39.739 39.5032Z" fill="#12484A"/>
</svg>
