<svg width="24" height="25" viewBox="0 0 24 25" fill="none" xmlns="http://www.w3.org/2000/svg">
<g id="instagram 1">
<path id="Vector" d="M17.34 3.287C17.1027 3.287 16.8707 3.35386 16.6733 3.47912C16.476 3.60439 16.3222 3.78243 16.2313 3.99074C16.1405 4.19905 16.1168 4.42826 16.1631 4.6494C16.2094 4.87054 16.3236 5.07367 16.4915 5.2331C16.6593 5.39253 16.8731 5.50111 17.1059 5.54509C17.3387 5.58908 17.5799 5.56651 17.7992 5.48022C18.0185 5.39394 18.2059 5.24782 18.3378 5.06035C18.4696 4.87288 18.54 4.65247 18.54 4.427C18.54 4.12465 18.4136 3.83469 18.1885 3.6209C17.9635 3.40711 17.6583 3.287 17.34 3.287ZM21.94 5.586C21.9206 4.79778 21.7652 4.01793 21.48 3.2775C21.2257 2.64398 20.83 2.07031 20.32 1.596C19.8248 1.10905 19.2196 0.735468 18.55 0.5035C17.7727 0.224353 16.9508 0.0733495 16.12 0.0569999C15.06 -5.30854e-08 14.72 0 12 0C9.28 0 8.94 -5.30854e-08 7.88 0.0569999C7.04915 0.0733495 6.22734 0.224353 5.45 0.5035C4.78168 0.737816 4.17693 1.11108 3.68 1.596C3.16743 2.06642 2.77418 2.64142 2.53 3.2775C2.23616 4.01598 2.07721 4.79669 2.06 5.586C2 6.593 2 6.916 2 9.5C2 12.084 2 12.407 2.06 13.414C2.07721 14.2033 2.23616 14.984 2.53 15.7225C2.77418 16.3586 3.16743 16.9336 3.68 17.404C4.17693 17.8889 4.78168 18.2622 5.45 18.4965C6.22734 18.7756 7.04915 18.9267 7.88 18.943C8.94 19 9.28 19 12 19C14.72 19 15.06 19 16.12 18.943C16.9508 18.9267 17.7727 18.7756 18.55 18.4965C19.2196 18.2645 19.8248 17.8909 20.32 17.404C20.8322 16.9315 21.2283 16.3573 21.48 15.7225C21.7652 14.9821 21.9206 14.2022 21.94 13.414C21.94 12.407 22 12.084 22 9.5C22 6.916 22 6.593 21.94 5.586ZM20.14 13.3C20.1327 13.903 20.0178 14.5005 19.8 15.067C19.6403 15.4804 19.3839 15.854 19.05 16.1595C18.7256 16.4735 18.3332 16.7166 17.9 16.872C17.3037 17.0789 16.6748 17.1881 16.04 17.195C15.04 17.2425 14.67 17.252 12.04 17.252C9.41 17.252 9.04 17.252 8.04 17.195C7.38089 17.2067 6.72459 17.1103 6.1 16.91C5.68578 16.7467 5.31136 16.5041 5 16.1975C4.66809 15.8923 4.41484 15.5184 4.26 15.105C4.01586 14.5304 3.88044 13.9193 3.86 13.3C3.86 12.35 3.8 11.9985 3.8 9.5C3.8 7.0015 3.8 6.65 3.86 5.7C3.86448 5.0835 3.98295 4.47255 4.21 3.895C4.38605 3.49402 4.65627 3.13658 5 2.85C5.30381 2.52336 5.67929 2.26394 6.1 2.09C6.70955 1.88104 7.352 1.77183 8 1.767C9 1.767 9.37 1.71 12 1.71C14.63 1.71 15 1.71 16 1.767C16.6348 1.77392 17.2637 1.88313 17.86 2.09C18.3144 2.25022 18.7223 2.5107 19.05 2.85C19.3777 3.14182 19.6338 3.4986 19.8 3.895C20.0223 4.47349 20.1373 5.08419 20.14 5.7C20.19 6.65 20.2 7.0015 20.2 9.5C20.2 11.9985 20.19 12.35 20.14 13.3ZM12 4.6265C10.9858 4.62838 9.99496 4.9158 9.15265 5.45245C8.31035 5.98909 7.65438 6.75089 7.26763 7.64157C6.88089 8.53225 6.78072 9.51184 6.97979 10.4566C7.17886 11.4013 7.66824 12.2688 8.38608 12.9494C9.10392 13.6301 10.018 14.0933 11.0129 14.2805C12.0077 14.4678 13.0387 14.3708 13.9755 14.0016C14.9123 13.6325 15.7129 13.0078 16.2761 12.2066C16.8394 11.4053 17.14 10.4635 17.14 9.5C17.1413 8.85885 17.0092 8.22378 16.7512 7.63131C16.4933 7.03884 16.1146 6.50067 15.6369 6.04775C15.1592 5.59483 14.5919 5.23609 13.9678 4.99218C13.3436 4.74827 12.6749 4.62399 12 4.6265ZM12 12.6635C11.3414 12.6635 10.6976 12.478 10.15 12.1304C9.60234 11.7827 9.17552 11.2887 8.92348 10.7106C8.67144 10.1326 8.6055 9.49649 8.73398 8.88283C8.86247 8.26917 9.17963 7.70549 9.64533 7.26307C10.111 6.82064 10.7044 6.51935 11.3503 6.39729C11.9963 6.27522 12.6659 6.33787 13.2743 6.57731C13.8828 6.81674 14.4029 7.22222 14.7688 7.74245C15.1347 8.26269 15.33 8.87432 15.33 9.5C15.33 9.91544 15.2439 10.3268 15.0765 10.7106C14.9092 11.0944 14.6639 11.4432 14.3547 11.7369C14.0454 12.0307 13.6784 12.2637 13.2743 12.4227C12.8703 12.5817 12.4373 12.6635 12 12.6635Z" fill="#12484A"/>
</g>
</svg>
