<svg width="24" height="25" viewBox="0 0 24 25" fill="none" xmlns="http://www.w3.org/2000/svg">
<g id="linkedin 1" clip-path="url(#clip0_64_105)">
<path id="Vector" d="M20.4701 -0.588971H3.53006C3.33964 -0.591616 3.15056 -0.556724 2.97362 -0.486288C2.79669 -0.415851 2.63536 -0.311251 2.49886 -0.17846C2.36235 -0.0456682 2.25334 0.112713 2.17805 0.287638C2.10276 0.462563 2.06267 0.650607 2.06006 0.841029V17.981C2.06267 18.1714 2.10276 18.3595 2.17805 18.5344C2.25334 18.7093 2.36235 18.8677 2.49886 19.0005C2.63536 19.1333 2.79669 19.2379 2.97362 19.3083C3.15056 19.3788 3.33964 19.4137 3.53006 19.411H20.4701C20.6605 19.4137 20.8496 19.3788 21.0265 19.3083C21.2034 19.2379 21.3648 19.1333 21.5013 19.0005C21.6378 18.8677 21.7468 18.7093 21.8221 18.5344C21.8974 18.3595 21.9375 18.1714 21.9401 17.981V0.841029C21.9375 0.650607 21.8974 0.462563 21.8221 0.287638C21.7468 0.112713 21.6378 -0.0456682 21.5013 -0.17846C21.3648 -0.311251 21.2034 -0.415851 21.0265 -0.486288C20.8496 -0.556724 20.6605 -0.591616 20.4701 -0.588971ZM8.09006 16.151H5.09006V7.15103H8.09006V16.151ZM6.59006 5.89103C6.17632 5.89103 5.77953 5.72667 5.48697 5.43411C5.19442 5.14156 5.03006 4.74477 5.03006 4.33103C5.03006 3.91729 5.19442 3.5205 5.48697 3.22794C5.77953 2.93539 6.17632 2.77103 6.59006 2.77103C6.80975 2.74611 7.03224 2.76788 7.24293 2.83491C7.45363 2.90194 7.6478 3.01272 7.81272 3.15999C7.97763 3.30726 8.10958 3.48771 8.19993 3.68951C8.29028 3.89131 8.33698 4.10992 8.33698 4.33103C8.33698 4.55213 8.29028 4.77074 8.19993 4.97255C8.10958 5.17435 7.97763 5.3548 7.81272 5.50207C7.6478 5.64934 7.45363 5.76012 7.24293 5.82715C7.03224 5.89417 6.80975 5.91594 6.59006 5.89103ZM18.9101 16.151H15.9101V11.321C15.9101 10.111 15.4801 9.32103 14.3901 9.32103C14.0527 9.3235 13.7242 9.42931 13.4489 9.6242C13.1735 9.81909 12.9645 10.0937 12.8501 10.411C12.7718 10.6461 12.7379 10.8936 12.7501 11.141V16.141H9.75006C9.75006 16.141 9.75006 7.96103 9.75006 7.14103H12.7501V8.41103C13.0226 7.93813 13.419 7.54855 13.8965 7.28423C14.374 7.01991 14.9146 6.89088 15.4601 6.91103C17.4601 6.91103 18.9101 8.20103 18.9101 10.971V16.151Z" fill="#12484A"/>
</g>
<defs>
<clipPath id="clip0_64_105">
<rect width="24" height="24.2667" fill="white"/>
</clipPath>
</defs>
</svg>
