<svg width="24" height="25" viewBox="0 0 24 25" fill="none" xmlns="http://www.w3.org/2000/svg">
<g id="youtube 1">
<path id="Vector" d="M23 7.12112C23.0495 5.68977 22.7365 4.26913 22.09 2.99112C21.6514 2.46672 21.0427 2.11283 20.37 1.99112C17.5875 1.73864 14.7936 1.63516 12 1.68112C9.21667 1.63308 6.43274 1.73322 3.66003 1.98112C3.11185 2.08083 2.60454 2.33796 2.20003 2.72112C1.30003 3.55112 1.20003 4.97112 1.10003 6.17112C0.954939 8.32868 0.954939 10.4936 1.10003 12.6511C1.12896 13.3265 1.22952 13.9969 1.40003 14.6511C1.5206 15.1562 1.76455 15.6235 2.11003 16.0111C2.51729 16.4146 3.03641 16.6863 3.60003 16.7911C5.75594 17.0572 7.92824 17.1675 10.1 17.1211C13.6 17.1711 16.67 17.1211 20.3 16.8411C20.8775 16.7428 21.4112 16.4707 21.83 16.0611C22.11 15.781 22.3191 15.4382 22.44 15.0611C22.7977 13.9637 22.9733 12.8152 22.96 11.6611C23 11.1011 23 7.72112 23 7.12112ZM9.74003 12.2611V6.07112L15.66 9.18112C14 10.1011 11.81 11.1411 9.74003 12.2611Z" fill="#12484A"/>
</g>
</svg>
